<?xml version="1.0" encoding="UTF-8"?>
<svg version="1.1" xmlns="http://www.w3.org/2000/svg" width="779" height="156">
<defs>
    <linearGradient id="grad1" x1="0%" y1="0%" x2="100%" y2="0%" gradientTransform="rotate(270)">
        <stop offset="0%" style="stop-color:#458588;stop-opacity:1">
            <animate attributeName="stop-color" values="#458588;#feb47b;#689d6a;#458588" dur="2.5s" repeatCount="indefinite" />
        </stop>
        <stop offset="33%" style="stop-color:#feb47b;stop-opacity:1">
            <animate attributeName="stop-color" values="#feb47b;#689d6a;#458588;#feb47b" dur="2.5s" repeatCount="indefinite" />
        </stop>
        <stop offset="66%" style="stop-color:#689d6a;stop-opacity:1">
            <animate attributeName="stop-color" values="#689d6a;#458588;#feb47b;#689d6a" dur="2.5s" repeatCount="indefinite" />
        </stop>
        <stop offset="100%" style="stop-color:#458588;stop-opacity:1">
            <animate attributeName="stop-color" values="#458588;#feb47b;#689d6a;#458588" dur="2.5s" repeatCount="indefinite" />
        </stop>
        <animateTransform attributeName="gradientTransform" type="translate" values="100,100" dur="2.5s" repeatCount="indefinite" />
    </linearGradient>
</defs>
<style>
    .change-color {
        fill: url(#grad1);
    }
</style>
<path d="M0 0 C9.12855851 -0.09094629 18.25680828 -0.16408408 27.38572025 -0.20724869 C31.62621674 -0.22798219 35.86638296 -0.25603356 40.10668945 -0.30175781 C44.21107083 -0.3457313 48.3151378 -0.36924364 52.41973686 -0.37950897 C53.97318905 -0.38680925 55.52662718 -0.40105995 57.0799427 -0.42292023 C71.26026975 -0.61425574 87.08404591 0.71340738 97.9921875 10.8515625 C104.92660872 18.3039073 106.65709382 24.37848349 106.41015625 34.4921875 C105.46376167 42.58611445 101.34289406 48.22892302 95.6484375 53.8203125 C94 55 94 55 91 55 C91 55.66 91 56.32 91 57 C91.7321875 57.10183594 92.464375 57.20367187 93.21875 57.30859375 C99.41326569 58.84852251 104.491203 63.7538565 107.9375 69 C112.1998713 76.68696618 113.59506161 85.20351322 111.2421875 93.75390625 C107.86265175 102.68173494 102.81244178 108.13098535 94.25390625 112.35546875 C88.23684649 114.91703851 82.57359039 116.42309805 76.07446289 117.13232422 C74.96819471 117.25675305 74.96819471 117.25675305 73.83957767 117.3836956 C66.12070343 118.18850616 58.43740953 118.25462724 50.68359375 118.1953125 C49.20573624 118.19156646 47.72787618 118.18872706 46.25001526 118.18673706 C42.42461875 118.17922548 38.59938251 118.15969006 34.77404785 118.1373291 C30.84482998 118.11659607 26.91558533 118.10767765 22.98632812 118.09765625 C15.3241384 118.07642758 7.66211238 118.0413532 0 118 C0 109.75 0 101.5 0 93 C2.05879395 92.98541748 4.11758789 92.97083496 6.23876953 92.95581055 C13.05218824 92.90540229 19.86537991 92.83879631 26.67857552 92.76428509 C30.80815797 92.71961767 34.93764261 92.68035373 39.06738281 92.65356445 C43.05518496 92.627495 47.04260993 92.5870673 51.03017807 92.53681374 C52.54910453 92.52016954 54.0680962 92.50864003 55.58710098 92.50238609 C57.72008763 92.49271792 59.85211468 92.46462874 61.98486328 92.43237305 C63.1973172 92.42126999 64.40977112 92.41016693 65.65896606 92.39872742 C70.31777233 91.84273373 73.68003065 90.31996935 77 87 C77.3574447 84.69994337 77.3574447 84.69994337 77.3125 82.125 C77.32925781 81.26132813 77.34601563 80.39765625 77.36328125 79.5078125 C76.9244195 76.47825074 76.10763399 75.19802913 74 73 C70.44426071 70.68440481 67.30073174 70.72626689 63.12011719 70.68115234 C62.43678314 70.67110672 61.7534491 70.6610611 61.04940796 70.65071106 C58.79857192 70.61990602 56.54785469 70.60285171 54.296875 70.5859375 C52.73316426 70.56722366 51.1694636 70.54765008 49.60577393 70.5272522 C45.49591006 70.47594767 41.38601345 70.43631305 37.27600098 70.39910889 C33.07975173 70.35905867 28.88363844 70.30797098 24.6875 70.2578125 C16.4584194 70.16107303 8.22928259 70.07768241 0 70 C0 62.41 0 54.82 0 47 C1.83626953 46.9906543 3.67253906 46.98130859 5.56445312 46.97167969 C11.6554751 46.93604964 17.74612641 46.88218698 23.83689117 46.81609726 C27.52702013 46.77671524 31.21691378 46.74448186 34.90722656 46.72900391 C38.47369583 46.71377536 42.03951781 46.67922247 45.60569763 46.63169098 C47.61728038 46.6097991 49.62904608 46.6075316 51.64074707 46.60565186 C58.85091216 46.49105801 63.91701464 46.00966679 70 42 C71.18850041 39.62299918 71.37572789 37.83807446 71.5625 35.1875 C71.64628906 34.33542969 71.73007812 33.48335937 71.81640625 32.60546875 C70.67607169 28.96621923 68.86530112 27.97982288 65.651474 26.06822205 C60.1670659 23.85867157 54.26620888 24.27358551 48.4375 24.29296875 C47.03643664 24.27983404 45.63539215 24.26452439 44.234375 24.24714661 C40.57157289 24.20748956 36.90926828 24.19711883 33.24627686 24.19311523 C29.49866833 24.18374698 25.75134771 24.14631071 22.00390625 24.11132812 C14.66921704 24.04694895 7.33498304 24.01614659 0 24 C0 16.08 0 8.16 0 0 Z " fill="#0e0f10" transform="translate(345,19)"/>
<path d="M0 0 C10.89 0 21.78 0 33 0 C43.82049259 24.32045384 54.62836285 48.64627045 65.37158203 73.00097656 C68.84892474 80.88216795 72.3326029 88.76012821 75.85546875 96.62109375 C76.43164106 97.90869121 77.00781295 99.19628886 77.58398438 100.48388672 C78.61980693 102.79556257 79.6586572 105.10588521 80.70117188 107.41455078 C81.14396484 108.40310059 81.58675781 109.39165039 82.04296875 110.41015625 C82.42477295 111.25715088 82.80657715 112.10414551 83.19995117 112.97680664 C84 115 84 115 84 117 C72.78 117 61.56 117 50 117 C47.40719021 111.81438043 45.00027539 106.78548162 42.88378906 101.42236328 C42.60035141 100.712397 42.31691376 100.00243073 42.02488708 99.27095032 C41.10159504 96.95546135 40.18342769 94.6379822 39.265625 92.3203125 C38.62136551 90.69977583 37.97689183 89.07932429 37.33221436 87.45895386 C35.98854407 84.07933831 34.64741251 80.69872975 33.30810547 77.31738281 C31.58894313 72.97759982 29.86347424 68.64035656 28.13614273 64.30381966 C26.80742268 60.96605331 25.48197059 57.62699695 24.15752411 54.28753281 C23.52217534 52.68669719 22.88581023 51.08626456 22.24842072 49.48624039 C21.3618324 47.25921783 20.47964162 45.03050411 19.59863281 42.80126953 C19.33374557 42.13842453 19.06885834 41.47557953 18.79594421 40.79264832 C17 36.22855623 17 36.22855623 17 34 C16.34 34 15.68 34 15 34 C14.6596875 35.26070312 14.319375 36.52140625 13.96875 37.8203125 C11.39654846 46.38129636 7.85547793 54.59910528 4.5 62.875 C3.05673981 66.45107666 1.61623249 70.02825988 0.17578125 73.60546875 C-0.35960518 74.93325096 -0.35960518 74.93325096 -0.9058075 76.28785706 C-3.10061227 81.73832406 -5.26545878 87.19931415 -7.39453125 92.67578125 C-7.64834564 93.32780518 -7.90216003 93.9798291 -8.16366577 94.65161133 C-9.32726188 97.64359265 -10.48540359 100.63754662 -11.63671875 103.63427734 C-12.04148438 104.67664551 -12.44625 105.71901367 -12.86328125 106.79296875 C-13.37822144 108.13137817 -13.37822144 108.13137817 -13.90356445 109.49682617 C-14.44630005 110.73589722 -14.44630005 110.73589722 -15 112 C-15.38414062 112.92232422 -15.76828125 113.84464844 -16.1640625 114.79492188 C-18 117 -18 117 -21.36987305 117.56762695 C-22.75074137 117.56683736 -24.13177087 117.53869745 -25.51171875 117.48828125 C-26.60405571 117.47766914 -26.60405571 117.47766914 -27.71846008 117.46684265 C-30.04252237 117.43887081 -32.3641673 117.3761365 -34.6875 117.3125 C-36.26363705 117.28742031 -37.83981191 117.26460655 -39.41601562 117.24414062 C-43.27827398 117.18903626 -47.13872732 117.10275228 -51 117 C-50.29363547 112.2429273 -49.06586184 108.64194674 -46.9375 104.3125 C-44.10461756 98.4456537 -41.49281353 92.51899615 -39 86.5 C-36.36412949 80.15532249 -33.59752056 73.90575094 -30.64453125 67.703125 C-28.27992576 62.69572513 -26.12513328 57.61304521 -24 52.5 C-21.33534674 46.09191496 -18.55272555 39.76784749 -15.57641602 33.4987793 C-12.86563177 27.77395483 -10.35860801 21.96940877 -7.87109375 16.14453125 C-5.40760356 10.68782334 -2.67747811 5.35495622 0 0 Z " fill="#0e0f10" transform="translate(205,19)"/>
<path d="M0 0 C10.89 0 21.78 0 33 0 C33 30.03 33 60.06 33 91 C51.48 91 69.96 91 89 91 C89 99.58 89 108.16 89 117 C59.63 117 30.26 117 0 117 C0 78.39 0 39.78 0 0 Z " fill="#0e0f10" transform="translate(521,19)"/>
<path d="M0 0 C29.04 0 58.08 0 88 0 C88 8.58 88 17.16 88 26 C69.85 26 51.7 26 33 26 C33 39.2 33 52.4 33 66 C22.11 66 11.22 66 0 66 C0 44.22 0 22.44 0 0 Z " fill="#0e0f10" transform="translate(18,70)"/>
<path class="change-color" d="M0 0 C30.69 0 61.38 0 93 0 C93 8.58 93 17.16 93 26 C62.31 26 31.62 26 0 26 C0 17.42 0 8.84 0 0 Z " fill="#689d6a" transform="translate(669,19)"/>
<path class="change-color" d="M0 0 C30.69 0 61.38 0 93 0 C93 8.25 93 16.5 93 25 C62.31 25 31.62 25 0 25 C0 16.75 0 8.5 0 0 Z " fill="#689d6a" transform="translate(669,111)"/>
<path d="M0 0 C29.04 0 58.08 0 88 0 C88 8.58 88 17.16 88 26 C58.96 26 29.92 26 0 26 C0 17.42 0 8.84 0 0 Z " fill="#0e0f10" transform="translate(18,19)"/>
<path class="change-color" d="M0 0 C30.69 0 61.38 0 93 0 C93 7.92 93 15.84 93 24 C62.31 24 31.62 24 0 24 C0 16.08 0 8.16 0 0 Z " fill="#689d6a" transform="translate(669,65)"/>
</svg>